<mxfile host="app.diagrams.net" agent="Mozilla/5.0 (Windows NT 10.0; Win64; x64) AppleWebKit/537.36 (KHTML, like Gecko) Chrome/134.0.0.0 Safari/537.36" version="26.1.3">
  <diagram id="C5RBs43oDa-KdzZeNtuy" name="Page-1">
    <mxGraphModel dx="1416" dy="855" grid="1" gridSize="10" guides="1" tooltips="1" connect="1" arrows="1" fold="1" page="1" pageScale="1" pageWidth="827" pageHeight="1169" math="0" shadow="0">
      <root>
        <mxCell id="WIyWlLk6GJQsqaUBKTNV-0" />
        <mxCell id="WIyWlLk6GJQsqaUBKTNV-1" parent="WIyWlLk6GJQsqaUBKTNV-0" />
        <mxCell id="K7yPg13TZxiOZWAHRg8s-27" style="edgeStyle=none;curved=1;rounded=0;orthogonalLoop=1;jettySize=auto;html=1;entryX=0.5;entryY=0;entryDx=0;entryDy=0;fontSize=12;startSize=8;endSize=8;" edge="1" parent="WIyWlLk6GJQsqaUBKTNV-1" source="K7yPg13TZxiOZWAHRg8s-2" target="K7yPg13TZxiOZWAHRg8s-26">
          <mxGeometry relative="1" as="geometry" />
        </mxCell>
        <mxCell id="K7yPg13TZxiOZWAHRg8s-2" value="" style="ellipse;fillColor=strokeColor;html=1;" vertex="1" parent="WIyWlLk6GJQsqaUBKTNV-1">
          <mxGeometry x="45" y="110" width="30" height="30" as="geometry" />
        </mxCell>
        <mxCell id="K7yPg13TZxiOZWAHRg8s-34" style="edgeStyle=none;curved=1;rounded=0;orthogonalLoop=1;jettySize=auto;html=1;entryX=0.5;entryY=0;entryDx=0;entryDy=0;fontSize=12;startSize=8;endSize=8;" edge="1" parent="WIyWlLk6GJQsqaUBKTNV-1" source="K7yPg13TZxiOZWAHRg8s-4" target="K7yPg13TZxiOZWAHRg8s-31">
          <mxGeometry relative="1" as="geometry" />
        </mxCell>
        <mxCell id="K7yPg13TZxiOZWAHRg8s-4" value="Welcome Screen" style="html=1;align=center;verticalAlign=top;rounded=1;absoluteArcSize=1;arcSize=10;dashed=0;whiteSpace=wrap;" vertex="1" parent="WIyWlLk6GJQsqaUBKTNV-1">
          <mxGeometry x="-10" y="330" width="140" height="40" as="geometry" />
        </mxCell>
        <mxCell id="K7yPg13TZxiOZWAHRg8s-9" style="edgeStyle=orthogonalEdgeStyle;rounded=0;orthogonalLoop=1;jettySize=auto;html=1;entryX=0;entryY=0.5;entryDx=0;entryDy=0;" edge="1" parent="WIyWlLk6GJQsqaUBKTNV-1" source="K7yPg13TZxiOZWAHRg8s-10" target="K7yPg13TZxiOZWAHRg8s-21">
          <mxGeometry relative="1" as="geometry" />
        </mxCell>
        <mxCell id="K7yPg13TZxiOZWAHRg8s-10" value="Blocked Access screen" style="html=1;align=center;verticalAlign=top;rounded=1;absoluteArcSize=1;arcSize=10;dashed=0;whiteSpace=wrap;" vertex="1" parent="WIyWlLk6GJQsqaUBKTNV-1">
          <mxGeometry x="160" y="220" width="140" height="40" as="geometry" />
        </mxCell>
        <mxCell id="K7yPg13TZxiOZWAHRg8s-18" value="Game Screen" style="html=1;align=center;verticalAlign=top;rounded=1;absoluteArcSize=1;arcSize=10;dashed=0;whiteSpace=wrap;" vertex="1" parent="WIyWlLk6GJQsqaUBKTNV-1">
          <mxGeometry x="-10" y="530" width="140" height="40" as="geometry" />
        </mxCell>
        <mxCell id="K7yPg13TZxiOZWAHRg8s-21" value="" style="ellipse;html=1;shape=endState;fillColor=strokeColor;" vertex="1" parent="WIyWlLk6GJQsqaUBKTNV-1">
          <mxGeometry x="350" y="225" width="30" height="30" as="geometry" />
        </mxCell>
        <mxCell id="K7yPg13TZxiOZWAHRg8s-22" value="Yes" style="text;html=1;align=center;verticalAlign=middle;whiteSpace=wrap;rounded=0;" vertex="1" parent="WIyWlLk6GJQsqaUBKTNV-1">
          <mxGeometry x="60" y="280" width="60" height="30" as="geometry" />
        </mxCell>
        <mxCell id="K7yPg13TZxiOZWAHRg8s-23" value="No" style="text;html=1;align=center;verticalAlign=middle;whiteSpace=wrap;rounded=0;" vertex="1" parent="WIyWlLk6GJQsqaUBKTNV-1">
          <mxGeometry x="95" y="180" width="60" height="30" as="geometry" />
        </mxCell>
        <mxCell id="K7yPg13TZxiOZWAHRg8s-29" style="edgeStyle=none;curved=1;rounded=0;orthogonalLoop=1;jettySize=auto;html=1;entryX=0.5;entryY=0;entryDx=0;entryDy=0;fontSize=12;startSize=8;endSize=8;" edge="1" parent="WIyWlLk6GJQsqaUBKTNV-1" source="K7yPg13TZxiOZWAHRg8s-26" target="K7yPg13TZxiOZWAHRg8s-4">
          <mxGeometry relative="1" as="geometry" />
        </mxCell>
        <mxCell id="K7yPg13TZxiOZWAHRg8s-30" style="edgeStyle=none;curved=1;rounded=0;orthogonalLoop=1;jettySize=auto;html=1;entryX=0;entryY=0.5;entryDx=0;entryDy=0;fontSize=12;startSize=8;endSize=8;" edge="1" parent="WIyWlLk6GJQsqaUBKTNV-1" source="K7yPg13TZxiOZWAHRg8s-26" target="K7yPg13TZxiOZWAHRg8s-10">
          <mxGeometry relative="1" as="geometry" />
        </mxCell>
        <mxCell id="K7yPg13TZxiOZWAHRg8s-26" value="Are you older than 18 yo?" style="rhombus;whiteSpace=wrap;html=1;fontSize=10;" vertex="1" parent="WIyWlLk6GJQsqaUBKTNV-1">
          <mxGeometry x="20" y="200" width="80" height="80" as="geometry" />
        </mxCell>
        <mxCell id="K7yPg13TZxiOZWAHRg8s-35" style="edgeStyle=none;curved=1;rounded=0;orthogonalLoop=1;jettySize=auto;html=1;entryX=0.5;entryY=0;entryDx=0;entryDy=0;fontSize=12;startSize=8;endSize=8;" edge="1" parent="WIyWlLk6GJQsqaUBKTNV-1" source="K7yPg13TZxiOZWAHRg8s-31" target="K7yPg13TZxiOZWAHRg8s-18">
          <mxGeometry relative="1" as="geometry" />
        </mxCell>
        <mxCell id="K7yPg13TZxiOZWAHRg8s-31" value="Avatar and Player selection Screen" style="html=1;align=center;verticalAlign=top;rounded=1;absoluteArcSize=1;arcSize=10;dashed=0;whiteSpace=wrap;" vertex="1" parent="WIyWlLk6GJQsqaUBKTNV-1">
          <mxGeometry x="-10" y="430" width="140" height="40" as="geometry" />
        </mxCell>
        <mxCell id="K7yPg13TZxiOZWAHRg8s-32" value="Information required:&lt;div&gt;Player 1: alias&lt;/div&gt;&lt;div&gt;Player 1: location (API call)&lt;/div&gt;&lt;div&gt;&lt;br&gt;&lt;/div&gt;&lt;div&gt;Player 2: alias&lt;/div&gt;&lt;div&gt;Player 2: location (API call)&lt;/div&gt;" style="shape=note2;boundedLbl=1;whiteSpace=wrap;html=1;size=25;verticalAlign=top;align=left;" vertex="1" parent="WIyWlLk6GJQsqaUBKTNV-1">
          <mxGeometry x="180" y="380" width="150" height="140" as="geometry" />
        </mxCell>
        <mxCell id="K7yPg13TZxiOZWAHRg8s-33" style="edgeStyle=none;curved=1;rounded=0;orthogonalLoop=1;jettySize=auto;html=1;entryX=0;entryY=0.5;entryDx=0;entryDy=0;entryPerimeter=0;fontSize=12;startSize=8;endSize=8;" edge="1" parent="WIyWlLk6GJQsqaUBKTNV-1" source="K7yPg13TZxiOZWAHRg8s-31" target="K7yPg13TZxiOZWAHRg8s-32">
          <mxGeometry relative="1" as="geometry" />
        </mxCell>
      </root>
    </mxGraphModel>
  </diagram>
</mxfile>
